<?xml version="1.0" encoding="utf-8" standalone="no"?>
<!DOCTYPE svg PUBLIC "-//W3C//DTD SVG 1.1//EN"
  "http://www.w3.org/Graphics/SVG/1.1/DTD/svg11.dtd">
<svg xmlns:xlink="http://www.w3.org/1999/xlink" width="656.39952pt" height="353.99952pt" viewBox="0 0 656.39952 353.99952" xmlns="http://www.w3.org/2000/svg" version="1.1">
 <metadata>
  <rdf:RDF xmlns:dc="http://purl.org/dc/elements/1.1/" xmlns:cc="http://creativecommons.org/ns#" xmlns:rdf="http://www.w3.org/1999/02/22-rdf-syntax-ns#">
   <cc:Work>
    <dc:type rdf:resource="http://purl.org/dc/dcmitype/StillImage"/>
    <dc:format>image/svg+xml</dc:format>
    <dc:creator>
     <cc:Agent>
      <dc:title>Matplotlib v3.10.8, https://matplotlib.org/</dc:title>
     </cc:Agent>
    </dc:creator>
   </cc:Work>
  </rdf:RDF>
 </metadata>
 <defs>
  <style type="text/css">*{stroke-linejoin: round; stroke-linecap: butt}</style>
 </defs>
 <g id="figure_1">
  <g id="patch_1">
   <path d="M 0 353.99952 
L 656.39952 353.99952 
L 656.39952 0 
L 0 0 
z
" style="fill: #ffffff"/>
  </g>
  <g id="axes_1">
   <g id="patch_2">
    <path d="M 50.14375 316.44327 
L 641.247957 316.44327 
L 641.247957 22.318125 
L 50.14375 22.318125 
z
" style="fill: #ffffff"/>
   </g>
   <g id="matplotlib.axis_1">
    <g id="xtick_1">
     <g id="line2d_1">
      <path d="M 50.14375 316.44327 
L 50.14375 22.318125 
" clip-path="url(#p19ff6d14cd)" style="fill: none; stroke: #b0b0b0; stroke-opacity: 0.2; stroke-width: 0.8; stroke-linecap: square"/>
     </g>
     <g id="line2d_2">
      <defs>
       <path id="mdb17346000" d="M 0 0 
L 0 3.5 
" style="stroke: #000000; stroke-width: 0.8"/>
      </defs>
      <g>
       <use xlink:href="#mdb17346000" x="50.14375" y="316.44327" style="stroke: #000000; stroke-width: 0.8"/>
      </g>
     </g>
     <g id="text_1">
      <!-- 0.5 -->
      <g transform="translate(42.192188 331.041707) scale(0.1 -0.1)">
       <defs>
        <path id="DejaVuSans-30" d="M 2034 4250 
Q 1547 4250 1301 3770 
Q 1056 3291 1056 2328 
Q 1056 1369 1301 889 
Q 1547 409 2034 409 
Q 2525 409 2770 889 
Q 3016 1369 3016 2328 
Q 3016 3291 2770 3770 
Q 2525 4250 2034 4250 
z
M 2034 4750 
Q 2819 4750 3233 4129 
Q 3647 3509 3647 2328 
Q 3647 1150 3233 529 
Q 2819 -91 2034 -91 
Q 1250 -91 836 529 
Q 422 1150 422 2328 
Q 422 3509 836 4129 
Q 1250 4750 2034 4750 
z
" transform="scale(0.015625)"/>
        <path id="DejaVuSans-2e" d="M 684 794 
L 1344 794 
L 1344 0 
L 684 0 
L 684 794 
z
" transform="scale(0.015625)"/>
        <path id="DejaVuSans-35" d="M 691 4666 
L 3169 4666 
L 3169 4134 
L 1269 4134 
L 1269 2991 
Q 1406 3038 1543 3061 
Q 1681 3084 1819 3084 
Q 2600 3084 3056 2656 
Q 3513 2228 3513 1497 
Q 3513 744 3044 326 
Q 2575 -91 1722 -91 
Q 1428 -91 1123 -41 
Q 819 9 494 109 
L 494 744 
Q 775 591 1075 516 
Q 1375 441 1709 441 
Q 2250 441 2565 725 
Q 2881 1009 2881 1497 
Q 2881 1984 2565 2268 
Q 2250 2553 1709 2553 
Q 1456 2553 1204 2497 
Q 953 2441 691 2322 
L 691 4666 
z
" transform="scale(0.015625)"/>
       </defs>
       <use xlink:href="#DejaVuSans-30"/>
       <use xlink:href="#DejaVuSans-2e" transform="translate(63.623047 0)"/>
       <use xlink:href="#DejaVuSans-35" transform="translate(95.410156 0)"/>
      </g>
     </g>
    </g>
    <g id="xtick_2">
     <g id="line2d_3">
      <path d="M 134.587208 316.44327 
L 134.587208 22.318125 
" clip-path="url(#p19ff6d14cd)" style="fill: none; stroke: #b0b0b0; stroke-opacity: 0.2; stroke-width: 0.8; stroke-linecap: square"/>
     </g>
     <g id="line2d_4">
      <g>
       <use xlink:href="#mdb17346000" x="134.587208" y="316.44327" style="stroke: #000000; stroke-width: 0.8"/>
      </g>
     </g>
     <g id="text_2">
      <!-- 1.0 -->
      <g transform="translate(126.635646 331.041707) scale(0.1 -0.1)">
       <defs>
        <path id="DejaVuSans-31" d="M 794 531 
L 1825 531 
L 1825 4091 
L 703 3866 
L 703 4441 
L 1819 4666 
L 2450 4666 
L 2450 531 
L 3481 531 
L 3481 0 
L 794 0 
L 794 531 
z
" transform="scale(0.015625)"/>
       </defs>
       <use xlink:href="#DejaVuSans-31"/>
       <use xlink:href="#DejaVuSans-2e" transform="translate(63.623047 0)"/>
       <use xlink:href="#DejaVuSans-30" transform="translate(95.410156 0)"/>
      </g>
     </g>
    </g>
    <g id="xtick_3">
     <g id="line2d_5">
      <path d="M 219.030666 316.44327 
L 219.030666 22.318125 
" clip-path="url(#p19ff6d14cd)" style="fill: none; stroke: #b0b0b0; stroke-opacity: 0.2; stroke-width: 0.8; stroke-linecap: square"/>
     </g>
     <g id="line2d_6">
      <g>
       <use xlink:href="#mdb17346000" x="219.030666" y="316.44327" style="stroke: #000000; stroke-width: 0.8"/>
      </g>
     </g>
     <g id="text_3">
      <!-- 1.5 -->
      <g transform="translate(211.079104 331.041707) scale(0.1 -0.1)">
       <use xlink:href="#DejaVuSans-31"/>
       <use xlink:href="#DejaVuSans-2e" transform="translate(63.623047 0)"/>
       <use xlink:href="#DejaVuSans-35" transform="translate(95.410156 0)"/>
      </g>
     </g>
    </g>
    <g id="xtick_4">
     <g id="line2d_7">
      <path d="M 303.474125 316.44327 
L 303.474125 22.318125 
" clip-path="url(#p19ff6d14cd)" style="fill: none; stroke: #b0b0b0; stroke-opacity: 0.2; stroke-width: 0.8; stroke-linecap: square"/>
     </g>
     <g id="line2d_8">
      <g>
       <use xlink:href="#mdb17346000" x="303.474125" y="316.44327" style="stroke: #000000; stroke-width: 0.8"/>
      </g>
     </g>
     <g id="text_4">
      <!-- 2.0 -->
      <g transform="translate(295.522562 331.041707) scale(0.1 -0.1)">
       <defs>
        <path id="DejaVuSans-32" d="M 1228 531 
L 3431 531 
L 3431 0 
L 469 0 
L 469 531 
Q 828 903 1448 1529 
Q 2069 2156 2228 2338 
Q 2531 2678 2651 2914 
Q 2772 3150 2772 3378 
Q 2772 3750 2511 3984 
Q 2250 4219 1831 4219 
Q 1534 4219 1204 4116 
Q 875 4013 500 3803 
L 500 4441 
Q 881 4594 1212 4672 
Q 1544 4750 1819 4750 
Q 2544 4750 2975 4387 
Q 3406 4025 3406 3419 
Q 3406 3131 3298 2873 
Q 3191 2616 2906 2266 
Q 2828 2175 2409 1742 
Q 1991 1309 1228 531 
z
" transform="scale(0.015625)"/>
       </defs>
       <use xlink:href="#DejaVuSans-32"/>
       <use xlink:href="#DejaVuSans-2e" transform="translate(63.623047 0)"/>
       <use xlink:href="#DejaVuSans-30" transform="translate(95.410156 0)"/>
      </g>
     </g>
    </g>
    <g id="xtick_5">
     <g id="line2d_9">
      <path d="M 387.917583 316.44327 
L 387.917583 22.318125 
" clip-path="url(#p19ff6d14cd)" style="fill: none; stroke: #b0b0b0; stroke-opacity: 0.2; stroke-width: 0.8; stroke-linecap: square"/>
     </g>
     <g id="line2d_10">
      <g>
       <use xlink:href="#mdb17346000" x="387.917583" y="316.44327" style="stroke: #000000; stroke-width: 0.8"/>
      </g>
     </g>
     <g id="text_5">
      <!-- 2.5 -->
      <g transform="translate(379.96602 331.041707) scale(0.1 -0.1)">
       <use xlink:href="#DejaVuSans-32"/>
       <use xlink:href="#DejaVuSans-2e" transform="translate(63.623047 0)"/>
       <use xlink:href="#DejaVuSans-35" transform="translate(95.410156 0)"/>
      </g>
     </g>
    </g>
    <g id="xtick_6">
     <g id="line2d_11">
      <path d="M 472.361041 316.44327 
L 472.361041 22.318125 
" clip-path="url(#p19ff6d14cd)" style="fill: none; stroke: #b0b0b0; stroke-opacity: 0.2; stroke-width: 0.8; stroke-linecap: square"/>
     </g>
     <g id="line2d_12">
      <g>
       <use xlink:href="#mdb17346000" x="472.361041" y="316.44327" style="stroke: #000000; stroke-width: 0.8"/>
      </g>
     </g>
     <g id="text_6">
      <!-- 3.0 -->
      <g transform="translate(464.409479 331.041707) scale(0.1 -0.1)">
       <defs>
        <path id="DejaVuSans-33" d="M 2597 2516 
Q 3050 2419 3304 2112 
Q 3559 1806 3559 1356 
Q 3559 666 3084 287 
Q 2609 -91 1734 -91 
Q 1441 -91 1130 -33 
Q 819 25 488 141 
L 488 750 
Q 750 597 1062 519 
Q 1375 441 1716 441 
Q 2309 441 2620 675 
Q 2931 909 2931 1356 
Q 2931 1769 2642 2001 
Q 2353 2234 1838 2234 
L 1294 2234 
L 1294 2753 
L 1863 2753 
Q 2328 2753 2575 2939 
Q 2822 3125 2822 3475 
Q 2822 3834 2567 4026 
Q 2313 4219 1838 4219 
Q 1578 4219 1281 4162 
Q 984 4106 628 3988 
L 628 4550 
Q 988 4650 1302 4700 
Q 1616 4750 1894 4750 
Q 2613 4750 3031 4423 
Q 3450 4097 3450 3541 
Q 3450 3153 3228 2886 
Q 3006 2619 2597 2516 
z
" transform="scale(0.015625)"/>
       </defs>
       <use xlink:href="#DejaVuSans-33"/>
       <use xlink:href="#DejaVuSans-2e" transform="translate(63.623047 0)"/>
       <use xlink:href="#DejaVuSans-30" transform="translate(95.410156 0)"/>
      </g>
     </g>
    </g>
    <g id="xtick_7">
     <g id="line2d_13">
      <path d="M 556.804499 316.44327 
L 556.804499 22.318125 
" clip-path="url(#p19ff6d14cd)" style="fill: none; stroke: #b0b0b0; stroke-opacity: 0.2; stroke-width: 0.8; stroke-linecap: square"/>
     </g>
     <g id="line2d_14">
      <g>
       <use xlink:href="#mdb17346000" x="556.804499" y="316.44327" style="stroke: #000000; stroke-width: 0.8"/>
      </g>
     </g>
     <g id="text_7">
      <!-- 3.5 -->
      <g transform="translate(548.852937 331.041707) scale(0.1 -0.1)">
       <use xlink:href="#DejaVuSans-33"/>
       <use xlink:href="#DejaVuSans-2e" transform="translate(63.623047 0)"/>
       <use xlink:href="#DejaVuSans-35" transform="translate(95.410156 0)"/>
      </g>
     </g>
    </g>
    <g id="xtick_8">
     <g id="line2d_15">
      <path d="M 641.247957 316.44327 
L 641.247957 22.318125 
" clip-path="url(#p19ff6d14cd)" style="fill: none; stroke: #b0b0b0; stroke-opacity: 0.2; stroke-width: 0.8; stroke-linecap: square"/>
     </g>
     <g id="line2d_16">
      <g>
       <use xlink:href="#mdb17346000" x="641.247957" y="316.44327" style="stroke: #000000; stroke-width: 0.8"/>
      </g>
     </g>
     <g id="text_8">
      <!-- 4.0 -->
      <g transform="translate(633.296395 331.041707) scale(0.1 -0.1)">
       <defs>
        <path id="DejaVuSans-34" d="M 2419 4116 
L 825 1625 
L 2419 1625 
L 2419 4116 
z
M 2253 4666 
L 3047 4666 
L 3047 1625 
L 3713 1625 
L 3713 1100 
L 3047 1100 
L 3047 0 
L 2419 0 
L 2419 1100 
L 313 1100 
L 313 1709 
L 2253 4666 
z
" transform="scale(0.015625)"/>
       </defs>
       <use xlink:href="#DejaVuSans-34"/>
       <use xlink:href="#DejaVuSans-2e" transform="translate(63.623047 0)"/>
       <use xlink:href="#DejaVuSans-30" transform="translate(95.410156 0)"/>
      </g>
     </g>
    </g>
    <g id="text_9">
     <!-- Driving frequency (Hz) -->
     <g transform="translate(289.169291 344.719832) scale(0.1 -0.1)">
      <defs>
       <path id="DejaVuSans-44" d="M 1259 4147 
L 1259 519 
L 2022 519 
Q 2988 519 3436 956 
Q 3884 1394 3884 2338 
Q 3884 3275 3436 3711 
Q 2988 4147 2022 4147 
L 1259 4147 
z
M 628 4666 
L 1925 4666 
Q 3281 4666 3915 4102 
Q 4550 3538 4550 2338 
Q 4550 1131 3912 565 
Q 3275 0 1925 0 
L 628 0 
L 628 4666 
z
" transform="scale(0.015625)"/>
       <path id="DejaVuSans-72" d="M 2631 2963 
Q 2534 3019 2420 3045 
Q 2306 3072 2169 3072 
Q 1681 3072 1420 2755 
Q 1159 2438 1159 1844 
L 1159 0 
L 581 0 
L 581 3500 
L 1159 3500 
L 1159 2956 
Q 1341 3275 1631 3429 
Q 1922 3584 2338 3584 
Q 2397 3584 2469 3576 
Q 2541 3569 2628 3553 
L 2631 2963 
z
" transform="scale(0.015625)"/>
       <path id="DejaVuSans-69" d="M 603 3500 
L 1178 3500 
L 1178 0 
L 603 0 
L 603 3500 
z
M 603 4863 
L 1178 4863 
L 1178 4134 
L 603 4134 
L 603 4863 
z
" transform="scale(0.015625)"/>
       <path id="DejaVuSans-76" d="M 191 3500 
L 800 3500 
L 1894 563 
L 2988 3500 
L 3597 3500 
L 2284 0 
L 1503 0 
L 191 3500 
z
" transform="scale(0.015625)"/>
       <path id="DejaVuSans-6e" d="M 3513 2113 
L 3513 0 
L 2938 0 
L 2938 2094 
Q 2938 2591 2744 2837 
Q 2550 3084 2163 3084 
Q 1697 3084 1428 2787 
Q 1159 2491 1159 1978 
L 1159 0 
L 581 0 
L 581 3500 
L 1159 3500 
L 1159 2956 
Q 1366 3272 1645 3428 
Q 1925 3584 2291 3584 
Q 2894 3584 3203 3211 
Q 3513 2838 3513 2113 
z
" transform="scale(0.015625)"/>
       <path id="DejaVuSans-67" d="M 2906 1791 
Q 2906 2416 2648 2759 
Q 2391 3103 1925 3103 
Q 1463 3103 1205 2759 
Q 947 2416 947 1791 
Q 947 1169 1205 825 
Q 1463 481 1925 481 
Q 2391 481 2648 825 
Q 2906 1169 2906 1791 
z
M 3481 434 
Q 3481 -459 3084 -895 
Q 2688 -1331 1869 -1331 
Q 1566 -1331 1297 -1286 
Q 1028 -1241 775 -1147 
L 775 -588 
Q 1028 -725 1275 -790 
Q 1522 -856 1778 -856 
Q 2344 -856 2625 -561 
Q 2906 -266 2906 331 
L 2906 616 
Q 2728 306 2450 153 
Q 2172 0 1784 0 
Q 1141 0 747 490 
Q 353 981 353 1791 
Q 353 2603 747 3093 
Q 1141 3584 1784 3584 
Q 2172 3584 2450 3431 
Q 2728 3278 2906 2969 
L 2906 3500 
L 3481 3500 
L 3481 434 
z
" transform="scale(0.015625)"/>
       <path id="DejaVuSans-20" transform="scale(0.015625)"/>
       <path id="DejaVuSans-66" d="M 2375 4863 
L 2375 4384 
L 1825 4384 
Q 1516 4384 1395 4259 
Q 1275 4134 1275 3809 
L 1275 3500 
L 2222 3500 
L 2222 3053 
L 1275 3053 
L 1275 0 
L 697 0 
L 697 3053 
L 147 3053 
L 147 3500 
L 697 3500 
L 697 3744 
Q 697 4328 969 4595 
Q 1241 4863 1831 4863 
L 2375 4863 
z
" transform="scale(0.015625)"/>
       <path id="DejaVuSans-65" d="M 3597 1894 
L 3597 1613 
L 953 1613 
Q 991 1019 1311 708 
Q 1631 397 2203 397 
Q 2534 397 2845 478 
Q 3156 559 3463 722 
L 3463 178 
Q 3153 47 2828 -22 
Q 2503 -91 2169 -91 
Q 1331 -91 842 396 
Q 353 884 353 1716 
Q 353 2575 817 3079 
Q 1281 3584 2069 3584 
Q 2775 3584 3186 3129 
Q 3597 2675 3597 1894 
z
M 3022 2063 
Q 3016 2534 2758 2815 
Q 2500 3097 2075 3097 
Q 1594 3097 1305 2825 
Q 1016 2553 972 2059 
L 3022 2063 
z
" transform="scale(0.015625)"/>
       <path id="DejaVuSans-71" d="M 947 1747 
Q 947 1113 1208 752 
Q 1469 391 1925 391 
Q 2381 391 2643 752 
Q 2906 1113 2906 1747 
Q 2906 2381 2643 2742 
Q 2381 3103 1925 3103 
Q 1469 3103 1208 2742 
Q 947 2381 947 1747 
z
M 2906 525 
Q 2725 213 2448 61 
Q 2172 -91 1784 -91 
Q 1150 -91 751 415 
Q 353 922 353 1747 
Q 353 2572 751 3078 
Q 1150 3584 1784 3584 
Q 2172 3584 2448 3432 
Q 2725 3281 2906 2969 
L 2906 3500 
L 3481 3500 
L 3481 -1331 
L 2906 -1331 
L 2906 525 
z
" transform="scale(0.015625)"/>
       <path id="DejaVuSans-75" d="M 544 1381 
L 544 3500 
L 1119 3500 
L 1119 1403 
Q 1119 906 1312 657 
Q 1506 409 1894 409 
Q 2359 409 2629 706 
Q 2900 1003 2900 1516 
L 2900 3500 
L 3475 3500 
L 3475 0 
L 2900 0 
L 2900 538 
Q 2691 219 2414 64 
Q 2138 -91 1772 -91 
Q 1169 -91 856 284 
Q 544 659 544 1381 
z
M 1991 3584 
L 1991 3584 
z
" transform="scale(0.015625)"/>
       <path id="DejaVuSans-63" d="M 3122 3366 
L 3122 2828 
Q 2878 2963 2633 3030 
Q 2388 3097 2138 3097 
Q 1578 3097 1268 2742 
Q 959 2388 959 1747 
Q 959 1106 1268 751 
Q 1578 397 2138 397 
Q 2388 397 2633 464 
Q 2878 531 3122 666 
L 3122 134 
Q 2881 22 2623 -34 
Q 2366 -91 2075 -91 
Q 1284 -91 818 406 
Q 353 903 353 1747 
Q 353 2603 823 3093 
Q 1294 3584 2113 3584 
Q 2378 3584 2631 3529 
Q 2884 3475 3122 3366 
z
" transform="scale(0.015625)"/>
       <path id="DejaVuSans-79" d="M 2059 -325 
Q 1816 -950 1584 -1140 
Q 1353 -1331 966 -1331 
L 506 -1331 
L 506 -850 
L 844 -850 
Q 1081 -850 1212 -737 
Q 1344 -625 1503 -206 
L 1606 56 
L 191 3500 
L 800 3500 
L 1894 763 
L 2988 3500 
L 3597 3500 
L 2059 -325 
z
" transform="scale(0.015625)"/>
       <path id="DejaVuSans-28" d="M 1984 4856 
Q 1566 4138 1362 3434 
Q 1159 2731 1159 2009 
Q 1159 1288 1364 580 
Q 1569 -128 1984 -844 
L 1484 -844 
Q 1016 -109 783 600 
Q 550 1309 550 2009 
Q 550 2706 781 3412 
Q 1013 4119 1484 4856 
L 1984 4856 
z
" transform="scale(0.015625)"/>
       <path id="DejaVuSans-48" d="M 628 4666 
L 1259 4666 
L 1259 2753 
L 3553 2753 
L 3553 4666 
L 4184 4666 
L 4184 0 
L 3553 0 
L 3553 2222 
L 1259 2222 
L 1259 0 
L 628 0 
L 628 4666 
z
" transform="scale(0.015625)"/>
       <path id="DejaVuSans-7a" d="M 353 3500 
L 3084 3500 
L 3084 2975 
L 922 459 
L 3084 459 
L 3084 0 
L 275 0 
L 275 525 
L 2438 3041 
L 353 3041 
L 353 3500 
z
" transform="scale(0.015625)"/>
       <path id="DejaVuSans-29" d="M 513 4856 
L 1013 4856 
Q 1481 4119 1714 3412 
Q 1947 2706 1947 2009 
Q 1947 1309 1714 600 
Q 1481 -109 1013 -844 
L 513 -844 
Q 928 -128 1133 580 
Q 1338 1288 1338 2009 
Q 1338 2731 1133 3434 
Q 928 4138 513 4856 
z
" transform="scale(0.015625)"/>
      </defs>
      <use xlink:href="#DejaVuSans-44"/>
      <use xlink:href="#DejaVuSans-72" transform="translate(77.001953 0)"/>
      <use xlink:href="#DejaVuSans-69" transform="translate(118.115234 0)"/>
      <use xlink:href="#DejaVuSans-76" transform="translate(145.898438 0)"/>
      <use xlink:href="#DejaVuSans-69" transform="translate(205.078125 0)"/>
      <use xlink:href="#DejaVuSans-6e" transform="translate(232.861328 0)"/>
      <use xlink:href="#DejaVuSans-67" transform="translate(296.240234 0)"/>
      <use xlink:href="#DejaVuSans-20" transform="translate(359.716797 0)"/>
      <use xlink:href="#DejaVuSans-66" transform="translate(391.503906 0)"/>
      <use xlink:href="#DejaVuSans-72" transform="translate(426.708984 0)"/>
      <use xlink:href="#DejaVuSans-65" transform="translate(465.572266 0)"/>
      <use xlink:href="#DejaVuSans-71" transform="translate(527.095703 0)"/>
      <use xlink:href="#DejaVuSans-75" transform="translate(590.572266 0)"/>
      <use xlink:href="#DejaVuSans-65" transform="translate(653.951172 0)"/>
      <use xlink:href="#DejaVuSans-6e" transform="translate(715.474609 0)"/>
      <use xlink:href="#DejaVuSans-63" transform="translate(778.853516 0)"/>
      <use xlink:href="#DejaVuSans-79" transform="translate(833.833984 0)"/>
      <use xlink:href="#DejaVuSans-20" transform="translate(893.013672 0)"/>
      <use xlink:href="#DejaVuSans-28" transform="translate(924.800781 0)"/>
      <use xlink:href="#DejaVuSans-48" transform="translate(963.814453 0)"/>
      <use xlink:href="#DejaVuSans-7a" transform="translate(1039.009766 0)"/>
      <use xlink:href="#DejaVuSans-29" transform="translate(1091.5 0)"/>
     </g>
    </g>
   </g>
   <g id="matplotlib.axis_2">
    <g id="ytick_1">
     <g id="line2d_17">
      <path d="M 50.14375 303.358688 
L 641.247957 303.358688 
" clip-path="url(#p19ff6d14cd)" style="fill: none; stroke: #b0b0b0; stroke-opacity: 0.2; stroke-width: 0.8; stroke-linecap: square"/>
     </g>
     <g id="line2d_18">
      <defs>
       <path id="mcd44e1cb45" d="M 0 0 
L -3.5 0 
" style="stroke: #000000; stroke-width: 0.8"/>
      </defs>
      <g>
       <use xlink:href="#mcd44e1cb45" x="50.14375" y="303.358688" style="stroke: #000000; stroke-width: 0.8"/>
      </g>
     </g>
     <g id="text_10">
      <!-- 0.0 -->
      <g transform="translate(27.240625 307.157907) scale(0.1 -0.1)">
       <use xlink:href="#DejaVuSans-30"/>
       <use xlink:href="#DejaVuSans-2e" transform="translate(63.623047 0)"/>
       <use xlink:href="#DejaVuSans-30" transform="translate(95.410156 0)"/>
      </g>
     </g>
    </g>
    <g id="ytick_2">
     <g id="line2d_19">
      <path d="M 50.14375 269.705533 
L 641.247957 269.705533 
" clip-path="url(#p19ff6d14cd)" style="fill: none; stroke: #b0b0b0; stroke-opacity: 0.2; stroke-width: 0.8; stroke-linecap: square"/>
     </g>
     <g id="line2d_20">
      <g>
       <use xlink:href="#mcd44e1cb45" x="50.14375" y="269.705533" style="stroke: #000000; stroke-width: 0.8"/>
      </g>
     </g>
     <g id="text_11">
      <!-- 2.5 -->
      <g transform="translate(27.240625 273.504752) scale(0.1 -0.1)">
       <use xlink:href="#DejaVuSans-32"/>
       <use xlink:href="#DejaVuSans-2e" transform="translate(63.623047 0)"/>
       <use xlink:href="#DejaVuSans-35" transform="translate(95.410156 0)"/>
      </g>
     </g>
    </g>
    <g id="ytick_3">
     <g id="line2d_21">
      <path d="M 50.14375 236.052379 
L 641.247957 236.052379 
" clip-path="url(#p19ff6d14cd)" style="fill: none; stroke: #b0b0b0; stroke-opacity: 0.2; stroke-width: 0.8; stroke-linecap: square"/>
     </g>
     <g id="line2d_22">
      <g>
       <use xlink:href="#mcd44e1cb45" x="50.14375" y="236.052379" style="stroke: #000000; stroke-width: 0.8"/>
      </g>
     </g>
     <g id="text_12">
      <!-- 5.0 -->
      <g transform="translate(27.240625 239.851597) scale(0.1 -0.1)">
       <use xlink:href="#DejaVuSans-35"/>
       <use xlink:href="#DejaVuSans-2e" transform="translate(63.623047 0)"/>
       <use xlink:href="#DejaVuSans-30" transform="translate(95.410156 0)"/>
      </g>
     </g>
    </g>
    <g id="ytick_4">
     <g id="line2d_23">
      <path d="M 50.14375 202.399224 
L 641.247957 202.399224 
" clip-path="url(#p19ff6d14cd)" style="fill: none; stroke: #b0b0b0; stroke-opacity: 0.2; stroke-width: 0.8; stroke-linecap: square"/>
     </g>
     <g id="line2d_24">
      <g>
       <use xlink:href="#mcd44e1cb45" x="50.14375" y="202.399224" style="stroke: #000000; stroke-width: 0.8"/>
      </g>
     </g>
     <g id="text_13">
      <!-- 7.5 -->
      <g transform="translate(27.240625 206.198443) scale(0.1 -0.1)">
       <defs>
        <path id="DejaVuSans-37" d="M 525 4666 
L 3525 4666 
L 3525 4397 
L 1831 0 
L 1172 0 
L 2766 4134 
L 525 4134 
L 525 4666 
z
" transform="scale(0.015625)"/>
       </defs>
       <use xlink:href="#DejaVuSans-37"/>
       <use xlink:href="#DejaVuSans-2e" transform="translate(63.623047 0)"/>
       <use xlink:href="#DejaVuSans-35" transform="translate(95.410156 0)"/>
      </g>
     </g>
    </g>
    <g id="ytick_5">
     <g id="line2d_25">
      <path d="M 50.14375 168.746069 
L 641.247957 168.746069 
" clip-path="url(#p19ff6d14cd)" style="fill: none; stroke: #b0b0b0; stroke-opacity: 0.2; stroke-width: 0.8; stroke-linecap: square"/>
     </g>
     <g id="line2d_26">
      <g>
       <use xlink:href="#mcd44e1cb45" x="50.14375" y="168.746069" style="stroke: #000000; stroke-width: 0.8"/>
      </g>
     </g>
     <g id="text_14">
      <!-- 10.0 -->
      <g transform="translate(20.878125 172.545288) scale(0.1 -0.1)">
       <use xlink:href="#DejaVuSans-31"/>
       <use xlink:href="#DejaVuSans-30" transform="translate(63.623047 0)"/>
       <use xlink:href="#DejaVuSans-2e" transform="translate(127.246094 0)"/>
       <use xlink:href="#DejaVuSans-30" transform="translate(159.033203 0)"/>
      </g>
     </g>
    </g>
    <g id="ytick_6">
     <g id="line2d_27">
      <path d="M 50.14375 135.092914 
L 641.247957 135.092914 
" clip-path="url(#p19ff6d14cd)" style="fill: none; stroke: #b0b0b0; stroke-opacity: 0.2; stroke-width: 0.8; stroke-linecap: square"/>
     </g>
     <g id="line2d_28">
      <g>
       <use xlink:href="#mcd44e1cb45" x="50.14375" y="135.092914" style="stroke: #000000; stroke-width: 0.8"/>
      </g>
     </g>
     <g id="text_15">
      <!-- 12.5 -->
      <g transform="translate(20.878125 138.892133) scale(0.1 -0.1)">
       <use xlink:href="#DejaVuSans-31"/>
       <use xlink:href="#DejaVuSans-32" transform="translate(63.623047 0)"/>
       <use xlink:href="#DejaVuSans-2e" transform="translate(127.246094 0)"/>
       <use xlink:href="#DejaVuSans-35" transform="translate(159.033203 0)"/>
      </g>
     </g>
    </g>
    <g id="ytick_7">
     <g id="line2d_29">
      <path d="M 50.14375 101.43976 
L 641.247957 101.43976 
" clip-path="url(#p19ff6d14cd)" style="fill: none; stroke: #b0b0b0; stroke-opacity: 0.2; stroke-width: 0.8; stroke-linecap: square"/>
     </g>
     <g id="line2d_30">
      <g>
       <use xlink:href="#mcd44e1cb45" x="50.14375" y="101.43976" style="stroke: #000000; stroke-width: 0.8"/>
      </g>
     </g>
     <g id="text_16">
      <!-- 15.0 -->
      <g transform="translate(20.878125 105.238979) scale(0.1 -0.1)">
       <use xlink:href="#DejaVuSans-31"/>
       <use xlink:href="#DejaVuSans-35" transform="translate(63.623047 0)"/>
       <use xlink:href="#DejaVuSans-2e" transform="translate(127.246094 0)"/>
       <use xlink:href="#DejaVuSans-30" transform="translate(159.033203 0)"/>
      </g>
     </g>
    </g>
    <g id="ytick_8">
     <g id="line2d_31">
      <path d="M 50.14375 67.786605 
L 641.247957 67.786605 
" clip-path="url(#p19ff6d14cd)" style="fill: none; stroke: #b0b0b0; stroke-opacity: 0.2; stroke-width: 0.8; stroke-linecap: square"/>
     </g>
     <g id="line2d_32">
      <g>
       <use xlink:href="#mcd44e1cb45" x="50.14375" y="67.786605" style="stroke: #000000; stroke-width: 0.8"/>
      </g>
     </g>
     <g id="text_17">
      <!-- 17.5 -->
      <g transform="translate(20.878125 71.585824) scale(0.1 -0.1)">
       <use xlink:href="#DejaVuSans-31"/>
       <use xlink:href="#DejaVuSans-37" transform="translate(63.623047 0)"/>
       <use xlink:href="#DejaVuSans-2e" transform="translate(127.246094 0)"/>
       <use xlink:href="#DejaVuSans-35" transform="translate(159.033203 0)"/>
      </g>
     </g>
    </g>
    <g id="ytick_9">
     <g id="line2d_33">
      <path d="M 50.14375 34.13345 
L 641.247957 34.13345 
" clip-path="url(#p19ff6d14cd)" style="fill: none; stroke: #b0b0b0; stroke-opacity: 0.2; stroke-width: 0.8; stroke-linecap: square"/>
     </g>
     <g id="line2d_34">
      <g>
       <use xlink:href="#mcd44e1cb45" x="50.14375" y="34.13345" style="stroke: #000000; stroke-width: 0.8"/>
      </g>
     </g>
     <g id="text_18">
      <!-- 20.0 -->
      <g transform="translate(20.878125 37.932669) scale(0.1 -0.1)">
       <use xlink:href="#DejaVuSans-32"/>
       <use xlink:href="#DejaVuSans-30" transform="translate(63.623047 0)"/>
       <use xlink:href="#DejaVuSans-2e" transform="translate(127.246094 0)"/>
       <use xlink:href="#DejaVuSans-30" transform="translate(159.033203 0)"/>
      </g>
     </g>
    </g>
    <g id="text_19">
     <!-- Receiver displacement amplitude (mm) -->
     <g transform="translate(14.798438 268.385385) rotate(-90) scale(0.1 -0.1)">
      <defs>
       <path id="DejaVuSans-52" d="M 2841 2188 
Q 3044 2119 3236 1894 
Q 3428 1669 3622 1275 
L 4263 0 
L 3584 0 
L 2988 1197 
Q 2756 1666 2539 1819 
Q 2322 1972 1947 1972 
L 1259 1972 
L 1259 0 
L 628 0 
L 628 4666 
L 2053 4666 
Q 2853 4666 3247 4331 
Q 3641 3997 3641 3322 
Q 3641 2881 3436 2590 
Q 3231 2300 2841 2188 
z
M 1259 4147 
L 1259 2491 
L 2053 2491 
Q 2509 2491 2742 2702 
Q 2975 2913 2975 3322 
Q 2975 3731 2742 3939 
Q 2509 4147 2053 4147 
L 1259 4147 
z
" transform="scale(0.015625)"/>
       <path id="DejaVuSans-64" d="M 2906 2969 
L 2906 4863 
L 3481 4863 
L 3481 0 
L 2906 0 
L 2906 525 
Q 2725 213 2448 61 
Q 2172 -91 1784 -91 
Q 1150 -91 751 415 
Q 353 922 353 1747 
Q 353 2572 751 3078 
Q 1150 3584 1784 3584 
Q 2172 3584 2448 3432 
Q 2725 3281 2906 2969 
z
M 947 1747 
Q 947 1113 1208 752 
Q 1469 391 1925 391 
Q 2381 391 2643 752 
Q 2906 1113 2906 1747 
Q 2906 2381 2643 2742 
Q 2381 3103 1925 3103 
Q 1469 3103 1208 2742 
Q 947 2381 947 1747 
z
" transform="scale(0.015625)"/>
       <path id="DejaVuSans-73" d="M 2834 3397 
L 2834 2853 
Q 2591 2978 2328 3040 
Q 2066 3103 1784 3103 
Q 1356 3103 1142 2972 
Q 928 2841 928 2578 
Q 928 2378 1081 2264 
Q 1234 2150 1697 2047 
L 1894 2003 
Q 2506 1872 2764 1633 
Q 3022 1394 3022 966 
Q 3022 478 2636 193 
Q 2250 -91 1575 -91 
Q 1294 -91 989 -36 
Q 684 19 347 128 
L 347 722 
Q 666 556 975 473 
Q 1284 391 1588 391 
Q 1994 391 2212 530 
Q 2431 669 2431 922 
Q 2431 1156 2273 1281 
Q 2116 1406 1581 1522 
L 1381 1569 
Q 847 1681 609 1914 
Q 372 2147 372 2553 
Q 372 3047 722 3315 
Q 1072 3584 1716 3584 
Q 2034 3584 2315 3537 
Q 2597 3491 2834 3397 
z
" transform="scale(0.015625)"/>
       <path id="DejaVuSans-70" d="M 1159 525 
L 1159 -1331 
L 581 -1331 
L 581 3500 
L 1159 3500 
L 1159 2969 
Q 1341 3281 1617 3432 
Q 1894 3584 2278 3584 
Q 2916 3584 3314 3078 
Q 3713 2572 3713 1747 
Q 3713 922 3314 415 
Q 2916 -91 2278 -91 
Q 1894 -91 1617 61 
Q 1341 213 1159 525 
z
M 3116 1747 
Q 3116 2381 2855 2742 
Q 2594 3103 2138 3103 
Q 1681 3103 1420 2742 
Q 1159 2381 1159 1747 
Q 1159 1113 1420 752 
Q 1681 391 2138 391 
Q 2594 391 2855 752 
Q 3116 1113 3116 1747 
z
" transform="scale(0.015625)"/>
       <path id="DejaVuSans-6c" d="M 603 4863 
L 1178 4863 
L 1178 0 
L 603 0 
L 603 4863 
z
" transform="scale(0.015625)"/>
       <path id="DejaVuSans-61" d="M 2194 1759 
Q 1497 1759 1228 1600 
Q 959 1441 959 1056 
Q 959 750 1161 570 
Q 1363 391 1709 391 
Q 2188 391 2477 730 
Q 2766 1069 2766 1631 
L 2766 1759 
L 2194 1759 
z
M 3341 1997 
L 3341 0 
L 2766 0 
L 2766 531 
Q 2569 213 2275 61 
Q 1981 -91 1556 -91 
Q 1019 -91 701 211 
Q 384 513 384 1019 
Q 384 1609 779 1909 
Q 1175 2209 1959 2209 
L 2766 2209 
L 2766 2266 
Q 2766 2663 2505 2880 
Q 2244 3097 1772 3097 
Q 1472 3097 1187 3025 
Q 903 2953 641 2809 
L 641 3341 
Q 956 3463 1253 3523 
Q 1550 3584 1831 3584 
Q 2591 3584 2966 3190 
Q 3341 2797 3341 1997 
z
" transform="scale(0.015625)"/>
       <path id="DejaVuSans-6d" d="M 3328 2828 
Q 3544 3216 3844 3400 
Q 4144 3584 4550 3584 
Q 5097 3584 5394 3201 
Q 5691 2819 5691 2113 
L 5691 0 
L 5113 0 
L 5113 2094 
Q 5113 2597 4934 2840 
Q 4756 3084 4391 3084 
Q 3944 3084 3684 2787 
Q 3425 2491 3425 1978 
L 3425 0 
L 2847 0 
L 2847 2094 
Q 2847 2600 2669 2842 
Q 2491 3084 2119 3084 
Q 1678 3084 1418 2786 
Q 1159 2488 1159 1978 
L 1159 0 
L 581 0 
L 581 3500 
L 1159 3500 
L 1159 2956 
Q 1356 3278 1631 3431 
Q 1906 3584 2284 3584 
Q 2666 3584 2933 3390 
Q 3200 3197 3328 2828 
z
" transform="scale(0.015625)"/>
       <path id="DejaVuSans-74" d="M 1172 4494 
L 1172 3500 
L 2356 3500 
L 2356 3053 
L 1172 3053 
L 1172 1153 
Q 1172 725 1289 603 
Q 1406 481 1766 481 
L 2356 481 
L 2356 0 
L 1766 0 
Q 1100 0 847 248 
Q 594 497 594 1153 
L 594 3053 
L 172 3053 
L 172 3500 
L 594 3500 
L 594 4494 
L 1172 4494 
z
" transform="scale(0.015625)"/>
      </defs>
      <use xlink:href="#DejaVuSans-52"/>
      <use xlink:href="#DejaVuSans-65" transform="translate(64.982422 0)"/>
      <use xlink:href="#DejaVuSans-63" transform="translate(126.505859 0)"/>
      <use xlink:href="#DejaVuSans-65" transform="translate(181.486328 0)"/>
      <use xlink:href="#DejaVuSans-69" transform="translate(243.009766 0)"/>
      <use xlink:href="#DejaVuSans-76" transform="translate(270.792969 0)"/>
      <use xlink:href="#DejaVuSans-65" transform="translate(329.972656 0)"/>
      <use xlink:href="#DejaVuSans-72" transform="translate(391.496094 0)"/>
      <use xlink:href="#DejaVuSans-20" transform="translate(432.609375 0)"/>
      <use xlink:href="#DejaVuSans-64" transform="translate(464.396484 0)"/>
      <use xlink:href="#DejaVuSans-69" transform="translate(527.873047 0)"/>
      <use xlink:href="#DejaVuSans-73" transform="translate(555.65625 0)"/>
      <use xlink:href="#DejaVuSans-70" transform="translate(607.755859 0)"/>
      <use xlink:href="#DejaVuSans-6c" transform="translate(671.232422 0)"/>
      <use xlink:href="#DejaVuSans-61" transform="translate(699.015625 0)"/>
      <use xlink:href="#DejaVuSans-63" transform="translate(760.294922 0)"/>
      <use xlink:href="#DejaVuSans-65" transform="translate(815.275391 0)"/>
      <use xlink:href="#DejaVuSans-6d" transform="translate(876.798828 0)"/>
      <use xlink:href="#DejaVuSans-65" transform="translate(974.210938 0)"/>
      <use xlink:href="#DejaVuSans-6e" transform="translate(1035.734375 0)"/>
      <use xlink:href="#DejaVuSans-74" transform="translate(1099.113281 0)"/>
      <use xlink:href="#DejaVuSans-20" transform="translate(1138.322266 0)"/>
      <use xlink:href="#DejaVuSans-61" transform="translate(1170.109375 0)"/>
      <use xlink:href="#DejaVuSans-6d" transform="translate(1231.388672 0)"/>
      <use xlink:href="#DejaVuSans-70" transform="translate(1328.800781 0)"/>
      <use xlink:href="#DejaVuSans-6c" transform="translate(1392.277344 0)"/>
      <use xlink:href="#DejaVuSans-69" transform="translate(1420.060547 0)"/>
      <use xlink:href="#DejaVuSans-74" transform="translate(1447.84375 0)"/>
      <use xlink:href="#DejaVuSans-75" transform="translate(1487.052734 0)"/>
      <use xlink:href="#DejaVuSans-64" transform="translate(1550.431641 0)"/>
      <use xlink:href="#DejaVuSans-65" transform="translate(1613.908203 0)"/>
      <use xlink:href="#DejaVuSans-20" transform="translate(1675.431641 0)"/>
      <use xlink:href="#DejaVuSans-28" transform="translate(1707.21875 0)"/>
      <use xlink:href="#DejaVuSans-6d" transform="translate(1746.232422 0)"/>
      <use xlink:href="#DejaVuSans-6d" transform="translate(1843.644531 0)"/>
      <use xlink:href="#DejaVuSans-29" transform="translate(1941.056641 0)"/>
     </g>
    </g>
   </g>
   <g id="line2d_35">
    <path d="M 50.14375 301.763799 
L 102.498694 301.434911 
L 139.653816 300.991622 
L 166.675722 300.458956 
L 186.942152 299.849985 
L 202.986409 299.151927 
L 215.652928 298.383809 
L 225.786143 297.556884 
L 234.230489 296.653886 
L 240.985966 295.73133 
L 246.897008 294.720919 
L 251.963615 293.649734 
L 256.185788 292.564292 
L 260.407961 291.246977 
L 263.785699 289.975272 
L 267.163438 288.450312 
L 269.696741 287.094099 
L 272.230045 285.506129 
L 274.763349 283.624857 
L 277.296653 281.365295 
L 278.985522 279.591186 
L 280.674391 277.548031 
L 282.36326 275.172393 
L 284.052129 272.379571 
L 285.740998 269.054016 
L 287.429868 265.034147 
L 289.118737 260.087411 
L 290.807606 253.867676 
L 291.65204 250.123601 
L 292.496475 245.839062 
L 293.34091 240.894227 
L 294.185344 235.132982 
L 295.029779 228.349171 
L 295.874213 220.26694 
L 296.718648 210.512971 
L 297.563083 198.578914 
L 298.407517 183.777016 
L 299.251952 165.211606 
L 300.096386 141.858155 
L 300.940821 113.05049 
L 302.62969 49.877156 
L 303.474125 35.68745 
L 304.318559 46.061645 
L 306.007428 103.753562 
L 306.851863 131.005365 
L 307.696298 153.319312 
L 308.540732 171.176147 
L 309.385167 185.478623 
L 310.229601 197.047003 
L 311.074036 206.522555 
L 311.91847 214.384487 
L 312.762905 220.987393 
L 313.60734 226.59477 
L 314.451774 231.404405 
L 316.140643 239.197022 
L 317.829513 245.204282 
L 319.518382 249.945841 
L 321.207251 253.758102 
L 322.89612 256.867238 
L 324.584989 259.430242 
L 326.273858 261.559032 
L 327.962728 263.335166 
L 329.651597 264.819136 
L 331.340466 266.056408 
L 333.029335 267.081453 
L 334.718204 267.920487 
L 337.251508 268.872274 
L 339.784812 269.495626 
L 342.318115 269.817581 
L 344.851419 269.848986 
L 347.384723 269.585656 
L 349.918027 269.007571 
L 351.606896 268.429055 
L 353.295765 267.676589 
L 354.984634 266.726805 
L 356.673503 265.548423 
L 358.362372 264.099563 
L 360.051242 262.323735 
L 361.740111 260.14375 
L 363.42898 257.452194 
L 365.117849 254.096091 
L 366.806718 249.851296 
L 367.651153 247.295792 
L 368.495587 244.377926 
L 369.340022 241.023952 
L 370.184457 237.13925 
L 371.028891 232.60089 
L 371.873326 227.24713 
L 372.71776 220.862605 
L 373.562195 213.157805 
L 374.40663 203.742314 
L 375.251064 192.095926 
L 376.095499 177.559535 
L 376.939933 159.426913 
L 379.473237 92.020242 
L 380.317672 85.422066 
L 381.162106 98.775117 
L 383.69541 175.14381 
L 384.539845 194.121689 
L 385.384279 209.172692 
L 386.228714 221.157065 
L 387.073148 230.811508 
L 387.917583 238.697296 
L 388.762017 245.227795 
L 389.606452 250.706023 
L 390.450887 255.355679 
L 392.139756 262.797089 
L 393.828625 268.465484 
L 395.517494 272.910334 
L 397.206363 276.478834 
L 398.895232 279.399916 
L 400.584102 281.830122 
L 402.272971 283.879866 
L 403.96184 285.629127 
L 405.650709 287.137189 
L 408.184013 289.042193 
L 410.717317 290.613642 
L 413.25062 291.928678 
L 416.628359 293.376665 
L 420.006097 294.558379 
L 424.22827 295.756426 
L 428.450443 296.722424 
L 433.51705 297.655539 
L 439.428092 298.515672 
L 446.183569 299.282196 
L 454.627915 300.012851 
L 464.76113 300.662393 
L 477.427649 301.246096 
L 493.471906 301.756982 
L 514.58277 302.19855 
L 544.137981 302.575449 
L 586.35971 302.872836 
L 641.247957 303.070063 
L 641.247957 303.070063 
" clip-path="url(#p19ff6d14cd)" style="fill: none; stroke: #1f77b4; stroke-width: 1.5; stroke-linecap: square"/>
   </g>
   <g id="line2d_36">
    <path d="M 50.14375 301.76386 
L 102.498694 301.435149 
L 139.653816 300.992218 
L 166.675722 300.460184 
L 186.942152 299.85223 
L 202.986409 299.155765 
L 215.652928 298.389979 
L 225.786143 297.56631 
L 234.230489 296.667831 
L 240.985966 295.751026 
L 246.897008 294.74834 
L 251.963615 293.687111 
L 256.185788 292.613758 
L 260.407961 291.314038 
L 263.785699 290.062593 
L 267.163438 288.566503 
L 269.696741 287.240462 
L 272.230045 285.693584 
L 274.763349 283.869608 
L 277.296653 281.692142 
L 278.985522 279.993365 
L 280.674391 278.049592 
L 282.36326 275.807512 
L 284.052129 273.198013 
L 285.740998 270.130254 
L 287.429868 266.483193 
L 289.118737 262.093429 
L 290.807606 256.738164 
L 292.496475 250.112886 
L 294.185344 241.808182 
L 295.874213 231.308638 
L 297.563083 218.098595 
L 299.251952 202.127512 
L 300.940821 185.112047 
L 301.785255 177.714294 
L 302.62969 172.29806 
L 303.474125 169.720571 
L 304.318559 170.356843 
L 305.162994 173.921534 
L 306.007428 179.630849 
L 310.229601 214.213031 
L 311.91847 224.933924 
L 313.60734 233.502815 
L 315.296209 240.340789 
L 316.985078 245.838225 
L 318.673947 250.302871 
L 320.362816 253.965651 
L 322.051685 256.997713 
L 323.740555 259.526181 
L 325.429424 261.646216 
L 327.118293 263.429747 
L 328.807162 264.931648 
L 330.496031 266.194108 
L 332.1849 267.249735 
L 334.718204 268.498962 
L 337.251508 269.400252 
L 339.784812 269.99406 
L 342.318115 270.304162 
L 344.851419 270.340287 
L 347.384723 270.09905 
L 349.918027 269.563355 
L 352.45133 268.700145 
L 354.1402 267.917365 
L 355.829069 266.943519 
L 357.517938 265.749347 
L 359.206807 264.296541 
L 360.895676 262.534786 
L 362.584545 260.39758 
L 364.273415 257.796355 
L 365.962284 254.612285 
L 367.651153 250.685376 
L 369.340022 245.801617 
L 371.028891 239.683883 
L 372.71776 232.009014 
L 374.40663 222.524814 
L 377.784368 200.602053 
L 378.628802 196.538209 
L 379.473237 194.354151 
L 380.317672 194.629723 
L 381.162106 197.502529 
L 382.006541 202.577215 
L 383.69541 216.304264 
L 385.384279 230.421694 
L 387.073148 242.456774 
L 388.762017 252.068769 
L 390.450887 259.632537 
L 392.139756 265.614755 
L 393.828625 270.404265 
L 395.517494 274.293412 
L 397.206363 277.495753 
L 398.895232 280.166946 
L 400.584102 282.421406 
L 402.272971 284.344302 
L 403.96184 285.99992 
L 406.495144 288.086755 
L 409.028447 289.802942 
L 411.561751 291.234486 
L 414.095055 292.443283 
L 417.472793 293.785544 
L 420.850532 294.889604 
L 425.072704 296.016756 
L 430.139312 297.093526 
L 436.050354 298.075138 
L 442.805831 298.940629 
L 450.405742 299.685778 
L 459.694522 300.37084 
L 471.516606 301.003854 
L 485.871994 301.542787 
L 504.449555 302.013002 
L 529.782593 302.418601 
L 565.248845 302.748549 
L 619.292658 303.007268 
L 641.247957 303.070182 
L 641.247957 303.070182 
" clip-path="url(#p19ff6d14cd)" style="fill: none; stroke: #ff7f0e; stroke-width: 1.5; stroke-linecap: square"/>
   </g>
   <g id="line2d_37">
    <path d="M 50.14375 301.764105 
L 102.498694 301.436101 
L 139.653816 300.994601 
L 166.675722 300.465082 
L 186.942152 299.861175 
L 202.986409 299.171033 
L 215.652928 298.414477 
L 225.786143 297.603641 
L 234.230489 296.722899 
L 241.8304 295.701782 
L 247.741442 294.698918 
L 252.80805 293.641673 
L 257.874657 292.340315 
L 262.09683 291.008709 
L 265.474568 289.732396 
L 268.852307 288.215814 
L 271.385611 286.881538 
L 273.918914 285.33868 
L 276.452218 283.540885 
L 278.985522 281.4291 
L 281.518826 278.92821 
L 283.207695 276.998989 
L 284.896564 274.822106 
L 286.585433 272.360619 
L 288.274302 269.575425 
L 289.963171 266.429147 
L 291.65204 262.894124 
L 293.34091 258.967212 
L 295.874213 252.464902 
L 299.251952 243.669116 
L 300.940821 240.056726 
L 301.785255 238.6586 
L 302.62969 237.604382 
L 303.474125 236.930307 
L 304.318559 236.652623 
L 305.162994 236.765757 
L 306.007428 237.243683 
L 306.851863 238.044068 
L 307.696298 239.114043 
L 309.385167 241.834272 
L 312.762905 248.214479 
L 315.296209 252.820383 
L 317.829513 256.864169 
L 319.518382 259.209129 
L 321.207251 261.283357 
L 322.89612 263.106855 
L 324.584989 264.702621 
L 327.118293 266.718593 
L 329.651597 268.341567 
L 332.1849 269.627681 
L 334.718204 270.620563 
L 337.251508 271.352645 
L 339.784812 271.846631 
L 342.318115 272.11669 
L 344.851419 272.169246 
L 347.384723 272.003341 
L 349.918027 271.610588 
L 352.45133 270.974748 
L 354.984634 270.071022 
L 357.517938 268.865304 
L 360.051242 267.314019 
L 361.740111 266.0628 
L 363.42898 264.619752 
L 365.117849 262.971486 
L 367.651153 260.103018 
L 370.184457 256.811617 
L 374.40663 251.190208 
L 376.095499 249.503289 
L 376.939933 248.941095 
L 377.784368 248.625312 
L 378.628802 248.593283 
L 379.473237 248.871095 
L 380.317672 249.469514 
L 381.162106 250.381765 
L 382.006541 251.583829 
L 383.69541 254.693852 
L 386.228714 260.363135 
L 389.606452 267.999569 
L 391.295321 271.41846 
L 392.98419 274.486277 
L 394.67306 277.205138 
L 396.361929 279.600295 
L 398.050798 281.706133 
L 399.739667 283.558602 
L 402.272971 285.935331 
L 404.806275 287.916075 
L 407.339578 289.580236 
L 409.872882 290.990161 
L 413.25062 292.557025 
L 416.628359 293.844026 
L 420.006097 294.914242 
L 424.22827 296.016676 
L 429.294877 297.07819 
L 435.205919 298.052198 
L 441.961396 298.915333 
L 449.561307 299.661259 
L 458.850088 300.34896 
L 470.672172 300.985743 
L 485.02756 301.528646 
L 503.605121 302.002706 
L 528.938158 302.411742 
L 564.404411 302.744438 
L 617.603789 303.002376 
L 641.247957 303.070658 
L 641.247957 303.070658 
" clip-path="url(#p19ff6d14cd)" style="fill: none; stroke: #2ca02c; stroke-width: 1.5; stroke-linecap: square"/>
   </g>
   <g id="line2d_38">
    <path d="M 50.14375 301.765818 
L 102.498694 301.442732 
L 140.49825 300.998259 
L 168.364592 300.458475 
L 189.475456 299.833532 
L 205.519713 299.150535 
L 219.030666 298.355202 
L 230.008316 297.485975 
L 239.297096 296.5241 
L 246.897008 295.52303 
L 253.652484 294.417143 
L 259.563526 293.235116 
L 264.630134 292.025016 
L 269.696741 290.598675 
L 274.763349 288.926937 
L 279.829956 286.99744 
L 285.740998 284.464129 
L 295.029779 280.387093 
L 298.407517 279.143818 
L 301.785255 278.172567 
L 304.318559 277.660546 
L 306.851863 277.344604 
L 309.385167 277.216761 
L 312.762905 277.299996 
L 316.140643 277.604054 
L 321.207251 278.2985 
L 333.029335 279.995718 
L 338.940377 280.565316 
L 344.851419 280.881228 
L 350.762461 280.962722 
L 360.051242 280.810779 
L 365.962284 280.801 
L 370.184457 281.022913 
L 373.562195 281.428738 
L 376.939933 282.086455 
L 380.317672 283.00811 
L 383.69541 284.165448 
L 387.917583 285.845601 
L 400.584102 291.04514 
L 405.650709 292.789525 
L 410.717317 294.273768 
L 415.783924 295.517757 
L 421.694966 296.71011 
L 427.606008 297.675539 
L 434.361485 298.561526 
L 442.805831 299.423245 
L 452.094611 300.142457 
L 463.916695 300.818332 
L 478.272083 301.400056 
L 496.849644 301.91043 
L 521.338247 302.339656 
L 555.11563 302.689419 
L 604.93727 302.962453 
L 641.247957 303.073945 
L 641.247957 303.073945 
" clip-path="url(#p19ff6d14cd)" style="fill: none; stroke: #d62728; stroke-width: 1.5; stroke-linecap: square"/>
   </g>
   <g id="line2d_39">
    <path d="M 303.474125 316.44327 
L 303.474125 22.318125 
" clip-path="url(#p19ff6d14cd)" style="fill: none; stroke-dasharray: 2.96,1.28; stroke-dashoffset: 0; stroke: #666666; stroke-width: 0.8"/>
   </g>
   <g id="line2d_40">
    <path d="M 380.296988 316.44327 
L 380.296988 22.318125 
" clip-path="url(#p19ff6d14cd)" style="fill: none; stroke-dasharray: 2.96,1.28; stroke-dashoffset: 0; stroke: #666666; stroke-width: 0.8"/>
   </g>
   <g id="patch_3">
    <path d="M 50.14375 316.44327 
L 50.14375 22.318125 
" style="fill: none; stroke: #000000; stroke-width: 0.8; stroke-linejoin: miter; stroke-linecap: square"/>
   </g>
   <g id="patch_4">
    <path d="M 50.14375 316.44327 
L 641.247957 316.44327 
" style="fill: none; stroke: #000000; stroke-width: 0.8; stroke-linejoin: miter; stroke-linecap: square"/>
   </g>
   <g id="text_20">
    <!-- Steady sinusoidal response: damping limits resonant amplitude -->
    <g transform="translate(154.564916 16.318125) scale(0.12 -0.12)">
     <defs>
      <path id="DejaVuSans-53" d="M 3425 4513 
L 3425 3897 
Q 3066 4069 2747 4153 
Q 2428 4238 2131 4238 
Q 1616 4238 1336 4038 
Q 1056 3838 1056 3469 
Q 1056 3159 1242 3001 
Q 1428 2844 1947 2747 
L 2328 2669 
Q 3034 2534 3370 2195 
Q 3706 1856 3706 1288 
Q 3706 609 3251 259 
Q 2797 -91 1919 -91 
Q 1588 -91 1214 -16 
Q 841 59 441 206 
L 441 856 
Q 825 641 1194 531 
Q 1563 422 1919 422 
Q 2459 422 2753 634 
Q 3047 847 3047 1241 
Q 3047 1584 2836 1778 
Q 2625 1972 2144 2069 
L 1759 2144 
Q 1053 2284 737 2584 
Q 422 2884 422 3419 
Q 422 4038 858 4394 
Q 1294 4750 2059 4750 
Q 2388 4750 2728 4690 
Q 3069 4631 3425 4513 
z
" transform="scale(0.015625)"/>
      <path id="DejaVuSans-6f" d="M 1959 3097 
Q 1497 3097 1228 2736 
Q 959 2375 959 1747 
Q 959 1119 1226 758 
Q 1494 397 1959 397 
Q 2419 397 2687 759 
Q 2956 1122 2956 1747 
Q 2956 2369 2687 2733 
Q 2419 3097 1959 3097 
z
M 1959 3584 
Q 2709 3584 3137 3096 
Q 3566 2609 3566 1747 
Q 3566 888 3137 398 
Q 2709 -91 1959 -91 
Q 1206 -91 779 398 
Q 353 888 353 1747 
Q 353 2609 779 3096 
Q 1206 3584 1959 3584 
z
" transform="scale(0.015625)"/>
      <path id="DejaVuSans-3a" d="M 750 794 
L 1409 794 
L 1409 0 
L 750 0 
L 750 794 
z
M 750 3309 
L 1409 3309 
L 1409 2516 
L 750 2516 
L 750 3309 
z
" transform="scale(0.015625)"/>
     </defs>
     <use xlink:href="#DejaVuSans-53"/>
     <use xlink:href="#DejaVuSans-74" transform="translate(63.476562 0)"/>
     <use xlink:href="#DejaVuSans-65" transform="translate(102.685547 0)"/>
     <use xlink:href="#DejaVuSans-61" transform="translate(164.208984 0)"/>
     <use xlink:href="#DejaVuSans-64" transform="translate(225.488281 0)"/>
     <use xlink:href="#DejaVuSans-79" transform="translate(288.964844 0)"/>
     <use xlink:href="#DejaVuSans-20" transform="translate(348.144531 0)"/>
     <use xlink:href="#DejaVuSans-73" transform="translate(379.931641 0)"/>
     <use xlink:href="#DejaVuSans-69" transform="translate(432.03125 0)"/>
     <use xlink:href="#DejaVuSans-6e" transform="translate(459.814453 0)"/>
     <use xlink:href="#DejaVuSans-75" transform="translate(523.193359 0)"/>
     <use xlink:href="#DejaVuSans-73" transform="translate(586.572266 0)"/>
     <use xlink:href="#DejaVuSans-6f" transform="translate(638.671875 0)"/>
     <use xlink:href="#DejaVuSans-69" transform="translate(699.853516 0)"/>
     <use xlink:href="#DejaVuSans-64" transform="translate(727.636719 0)"/>
     <use xlink:href="#DejaVuSans-61" transform="translate(791.113281 0)"/>
     <use xlink:href="#DejaVuSans-6c" transform="translate(852.392578 0)"/>
     <use xlink:href="#DejaVuSans-20" transform="translate(880.175781 0)"/>
     <use xlink:href="#DejaVuSans-72" transform="translate(911.962891 0)"/>
     <use xlink:href="#DejaVuSans-65" transform="translate(950.826172 0)"/>
     <use xlink:href="#DejaVuSans-73" transform="translate(1012.349609 0)"/>
     <use xlink:href="#DejaVuSans-70" transform="translate(1064.449219 0)"/>
     <use xlink:href="#DejaVuSans-6f" transform="translate(1127.925781 0)"/>
     <use xlink:href="#DejaVuSans-6e" transform="translate(1189.107422 0)"/>
     <use xlink:href="#DejaVuSans-73" transform="translate(1252.486328 0)"/>
     <use xlink:href="#DejaVuSans-65" transform="translate(1304.585938 0)"/>
     <use xlink:href="#DejaVuSans-3a" transform="translate(1366.109375 0)"/>
     <use xlink:href="#DejaVuSans-20" transform="translate(1399.800781 0)"/>
     <use xlink:href="#DejaVuSans-64" transform="translate(1431.587891 0)"/>
     <use xlink:href="#DejaVuSans-61" transform="translate(1495.064453 0)"/>
     <use xlink:href="#DejaVuSans-6d" transform="translate(1556.34375 0)"/>
     <use xlink:href="#DejaVuSans-70" transform="translate(1653.755859 0)"/>
     <use xlink:href="#DejaVuSans-69" transform="translate(1717.232422 0)"/>
     <use xlink:href="#DejaVuSans-6e" transform="translate(1745.015625 0)"/>
     <use xlink:href="#DejaVuSans-67" transform="translate(1808.394531 0)"/>
     <use xlink:href="#DejaVuSans-20" transform="translate(1871.871094 0)"/>
     <use xlink:href="#DejaVuSans-6c" transform="translate(1903.658203 0)"/>
     <use xlink:href="#DejaVuSans-69" transform="translate(1931.441406 0)"/>
     <use xlink:href="#DejaVuSans-6d" transform="translate(1959.224609 0)"/>
     <use xlink:href="#DejaVuSans-69" transform="translate(2056.636719 0)"/>
     <use xlink:href="#DejaVuSans-74" transform="translate(2084.419922 0)"/>
     <use xlink:href="#DejaVuSans-73" transform="translate(2123.628906 0)"/>
     <use xlink:href="#DejaVuSans-20" transform="translate(2175.728516 0)"/>
     <use xlink:href="#DejaVuSans-72" transform="translate(2207.515625 0)"/>
     <use xlink:href="#DejaVuSans-65" transform="translate(2246.378906 0)"/>
     <use xlink:href="#DejaVuSans-73" transform="translate(2307.902344 0)"/>
     <use xlink:href="#DejaVuSans-6f" transform="translate(2360.001953 0)"/>
     <use xlink:href="#DejaVuSans-6e" transform="translate(2421.183594 0)"/>
     <use xlink:href="#DejaVuSans-61" transform="translate(2484.5625 0)"/>
     <use xlink:href="#DejaVuSans-6e" transform="translate(2545.841797 0)"/>
     <use xlink:href="#DejaVuSans-74" transform="translate(2609.220703 0)"/>
     <use xlink:href="#DejaVuSans-20" transform="translate(2648.429688 0)"/>
     <use xlink:href="#DejaVuSans-61" transform="translate(2680.216797 0)"/>
     <use xlink:href="#DejaVuSans-6d" transform="translate(2741.496094 0)"/>
     <use xlink:href="#DejaVuSans-70" transform="translate(2838.908203 0)"/>
     <use xlink:href="#DejaVuSans-6c" transform="translate(2902.384766 0)"/>
     <use xlink:href="#DejaVuSans-69" transform="translate(2930.167969 0)"/>
     <use xlink:href="#DejaVuSans-74" transform="translate(2957.951172 0)"/>
     <use xlink:href="#DejaVuSans-75" transform="translate(2997.160156 0)"/>
     <use xlink:href="#DejaVuSans-64" transform="translate(3060.539062 0)"/>
     <use xlink:href="#DejaVuSans-65" transform="translate(3124.015625 0)"/>
    </g>
   </g>
   <g id="legend_1">
    <g id="patch_5">
     <path d="M 402.74327 74.3525 
L 634.247957 74.3525 
Q 636.247957 74.3525 636.247957 72.3525 
L 636.247957 29.318125 
Q 636.247957 27.318125 634.247957 27.318125 
L 402.74327 27.318125 
Q 400.74327 27.318125 400.74327 29.318125 
L 400.74327 72.3525 
Q 400.74327 74.3525 402.74327 74.3525 
z
" style="fill: #ffffff; opacity: 0.8; stroke: #cccccc; stroke-linejoin: miter"/>
    </g>
    <g id="line2d_41">
     <path d="M 404.74327 35.416562 
L 414.74327 35.416562 
L 424.74327 35.416562 
" style="fill: none; stroke: #1f77b4; stroke-width: 1.5; stroke-linecap: square"/>
    </g>
    <g id="text_21">
     <!-- c = 0.2 kg/s -->
     <g transform="translate(432.74327 38.916562) scale(0.1 -0.1)">
      <defs>
       <path id="DejaVuSans-3d" d="M 678 2906 
L 4684 2906 
L 4684 2381 
L 678 2381 
L 678 2906 
z
M 678 1631 
L 4684 1631 
L 4684 1100 
L 678 1100 
L 678 1631 
z
" transform="scale(0.015625)"/>
       <path id="DejaVuSans-6b" d="M 581 4863 
L 1159 4863 
L 1159 1991 
L 2875 3500 
L 3609 3500 
L 1753 1863 
L 3688 0 
L 2938 0 
L 1159 1709 
L 1159 0 
L 581 0 
L 581 4863 
z
" transform="scale(0.015625)"/>
       <path id="DejaVuSans-2f" d="M 1625 4666 
L 2156 4666 
L 531 -594 
L 0 -594 
L 1625 4666 
z
" transform="scale(0.015625)"/>
      </defs>
      <use xlink:href="#DejaVuSans-63"/>
      <use xlink:href="#DejaVuSans-20" transform="translate(54.980469 0)"/>
      <use xlink:href="#DejaVuSans-3d" transform="translate(86.767578 0)"/>
      <use xlink:href="#DejaVuSans-20" transform="translate(170.556641 0)"/>
      <use xlink:href="#DejaVuSans-30" transform="translate(202.34375 0)"/>
      <use xlink:href="#DejaVuSans-2e" transform="translate(265.966797 0)"/>
      <use xlink:href="#DejaVuSans-32" transform="translate(297.753906 0)"/>
      <use xlink:href="#DejaVuSans-20" transform="translate(361.376953 0)"/>
      <use xlink:href="#DejaVuSans-6b" transform="translate(393.164062 0)"/>
      <use xlink:href="#DejaVuSans-67" transform="translate(451.074219 0)"/>
      <use xlink:href="#DejaVuSans-2f" transform="translate(514.550781 0)"/>
      <use xlink:href="#DejaVuSans-73" transform="translate(548.242188 0)"/>
     </g>
    </g>
    <g id="line2d_42">
     <path d="M 404.74327 50.094687 
L 414.74327 50.094687 
L 424.74327 50.094687 
" style="fill: none; stroke: #ff7f0e; stroke-width: 1.5; stroke-linecap: square"/>
    </g>
    <g id="text_22">
     <!-- c = 0.4 kg/s -->
     <g transform="translate(432.74327 53.594687) scale(0.1 -0.1)">
      <use xlink:href="#DejaVuSans-63"/>
      <use xlink:href="#DejaVuSans-20" transform="translate(54.980469 0)"/>
      <use xlink:href="#DejaVuSans-3d" transform="translate(86.767578 0)"/>
      <use xlink:href="#DejaVuSans-20" transform="translate(170.556641 0)"/>
      <use xlink:href="#DejaVuSans-30" transform="translate(202.34375 0)"/>
      <use xlink:href="#DejaVuSans-2e" transform="translate(265.966797 0)"/>
      <use xlink:href="#DejaVuSans-34" transform="translate(297.753906 0)"/>
      <use xlink:href="#DejaVuSans-20" transform="translate(361.376953 0)"/>
      <use xlink:href="#DejaVuSans-6b" transform="translate(393.164062 0)"/>
      <use xlink:href="#DejaVuSans-67" transform="translate(451.074219 0)"/>
      <use xlink:href="#DejaVuSans-2f" transform="translate(514.550781 0)"/>
      <use xlink:href="#DejaVuSans-73" transform="translate(548.242188 0)"/>
     </g>
    </g>
    <g id="line2d_43">
     <path d="M 404.74327 64.772812 
L 414.74327 64.772812 
L 424.74327 64.772812 
" style="fill: none; stroke: #2ca02c; stroke-width: 1.5; stroke-linecap: square"/>
    </g>
    <g id="text_23">
     <!-- c = 0.8 kg/s -->
     <g transform="translate(432.74327 68.272812) scale(0.1 -0.1)">
      <defs>
       <path id="DejaVuSans-38" d="M 2034 2216 
Q 1584 2216 1326 1975 
Q 1069 1734 1069 1313 
Q 1069 891 1326 650 
Q 1584 409 2034 409 
Q 2484 409 2743 651 
Q 3003 894 3003 1313 
Q 3003 1734 2745 1975 
Q 2488 2216 2034 2216 
z
M 1403 2484 
Q 997 2584 770 2862 
Q 544 3141 544 3541 
Q 544 4100 942 4425 
Q 1341 4750 2034 4750 
Q 2731 4750 3128 4425 
Q 3525 4100 3525 3541 
Q 3525 3141 3298 2862 
Q 3072 2584 2669 2484 
Q 3125 2378 3379 2068 
Q 3634 1759 3634 1313 
Q 3634 634 3220 271 
Q 2806 -91 2034 -91 
Q 1263 -91 848 271 
Q 434 634 434 1313 
Q 434 1759 690 2068 
Q 947 2378 1403 2484 
z
M 1172 3481 
Q 1172 3119 1398 2916 
Q 1625 2713 2034 2713 
Q 2441 2713 2670 2916 
Q 2900 3119 2900 3481 
Q 2900 3844 2670 4047 
Q 2441 4250 2034 4250 
Q 1625 4250 1398 4047 
Q 1172 3844 1172 3481 
z
" transform="scale(0.015625)"/>
      </defs>
      <use xlink:href="#DejaVuSans-63"/>
      <use xlink:href="#DejaVuSans-20" transform="translate(54.980469 0)"/>
      <use xlink:href="#DejaVuSans-3d" transform="translate(86.767578 0)"/>
      <use xlink:href="#DejaVuSans-20" transform="translate(170.556641 0)"/>
      <use xlink:href="#DejaVuSans-30" transform="translate(202.34375 0)"/>
      <use xlink:href="#DejaVuSans-2e" transform="translate(265.966797 0)"/>
      <use xlink:href="#DejaVuSans-38" transform="translate(297.753906 0)"/>
      <use xlink:href="#DejaVuSans-20" transform="translate(361.376953 0)"/>
      <use xlink:href="#DejaVuSans-6b" transform="translate(393.164062 0)"/>
      <use xlink:href="#DejaVuSans-67" transform="translate(451.074219 0)"/>
      <use xlink:href="#DejaVuSans-2f" transform="translate(514.550781 0)"/>
      <use xlink:href="#DejaVuSans-73" transform="translate(548.242188 0)"/>
     </g>
    </g>
    <g id="line2d_44">
     <path d="M 512.776083 35.416562 
L 522.776083 35.416562 
L 532.776083 35.416562 
" style="fill: none; stroke: #d62728; stroke-width: 1.5; stroke-linecap: square"/>
    </g>
    <g id="text_24">
     <!-- c = 2 kg/s -->
     <g transform="translate(540.776083 38.916562) scale(0.1 -0.1)">
      <use xlink:href="#DejaVuSans-63"/>
      <use xlink:href="#DejaVuSans-20" transform="translate(54.980469 0)"/>
      <use xlink:href="#DejaVuSans-3d" transform="translate(86.767578 0)"/>
      <use xlink:href="#DejaVuSans-20" transform="translate(170.556641 0)"/>
      <use xlink:href="#DejaVuSans-32" transform="translate(202.34375 0)"/>
      <use xlink:href="#DejaVuSans-20" transform="translate(265.966797 0)"/>
      <use xlink:href="#DejaVuSans-6b" transform="translate(297.753906 0)"/>
      <use xlink:href="#DejaVuSans-67" transform="translate(355.664062 0)"/>
      <use xlink:href="#DejaVuSans-2f" transform="translate(419.140625 0)"/>
      <use xlink:href="#DejaVuSans-73" transform="translate(452.832031 0)"/>
     </g>
    </g>
    <g id="line2d_45">
     <path d="M 512.776083 50.094687 
L 522.776083 50.094687 
L 532.776083 50.094687 
" style="fill: none; stroke-dasharray: 2.96,1.28; stroke-dashoffset: 0; stroke: #666666; stroke-width: 0.8"/>
    </g>
    <g id="text_25">
     <!-- Undamped modes -->
     <g transform="translate(540.776083 53.594687) scale(0.1 -0.1)">
      <defs>
       <path id="DejaVuSans-55" d="M 556 4666 
L 1191 4666 
L 1191 1831 
Q 1191 1081 1462 751 
Q 1734 422 2344 422 
Q 2950 422 3222 751 
Q 3494 1081 3494 1831 
L 3494 4666 
L 4128 4666 
L 4128 1753 
Q 4128 841 3676 375 
Q 3225 -91 2344 -91 
Q 1459 -91 1007 375 
Q 556 841 556 1753 
L 556 4666 
z
" transform="scale(0.015625)"/>
      </defs>
      <use xlink:href="#DejaVuSans-55"/>
      <use xlink:href="#DejaVuSans-6e" transform="translate(73.193359 0)"/>
      <use xlink:href="#DejaVuSans-64" transform="translate(136.572266 0)"/>
      <use xlink:href="#DejaVuSans-61" transform="translate(200.048828 0)"/>
      <use xlink:href="#DejaVuSans-6d" transform="translate(261.328125 0)"/>
      <use xlink:href="#DejaVuSans-70" transform="translate(358.740234 0)"/>
      <use xlink:href="#DejaVuSans-65" transform="translate(422.216797 0)"/>
      <use xlink:href="#DejaVuSans-64" transform="translate(483.740234 0)"/>
      <use xlink:href="#DejaVuSans-20" transform="translate(547.216797 0)"/>
      <use xlink:href="#DejaVuSans-6d" transform="translate(579.003906 0)"/>
      <use xlink:href="#DejaVuSans-6f" transform="translate(676.416016 0)"/>
      <use xlink:href="#DejaVuSans-64" transform="translate(737.597656 0)"/>
      <use xlink:href="#DejaVuSans-65" transform="translate(801.074219 0)"/>
      <use xlink:href="#DejaVuSans-73" transform="translate(862.597656 0)"/>
     </g>
    </g>
   </g>
  </g>
 </g>
 <defs>
  <clipPath id="p19ff6d14cd">
   <rect x="50.14375" y="22.318125" width="591.104208" height="294.125145"/>
  </clipPath>
 </defs>
</svg>
